M48
;Layer_Color=9474304
;FILE_FORMAT=4:4
METRIC,LZ
;TYPE=PLATED
T01F00S00C0.2540
T03F00S00C1.0200
T04F00S00C1.1000
T05F00S00C1.3000
T06F00S00C5.5880
;TYPE=NON_PLATED
T07F00S00C0.6604
%
T01
X00881275Y00355557
X00877201Y00375861
X00869576Y00378737
X00863134Y003823
X00858115Y00391857
X00931873Y00369266
X00963888Y00363833
X00958597Y00382699
X00989464Y0038452
X00989812Y00396585
X01000107Y00389955
X00995693Y00370964
X00995687Y0035333
X00989333Y00349287
X00981069Y00348529
X01009152Y00364128
X01015491Y00364511
X01034863Y00363372
X01048313
X01059899
X01072959Y00366948
X0107956Y00368645
X01086515Y00368704
X01095547Y00369877
X01103851Y00369336
X01106887Y00381523
X0112384Y00374958
X01124032Y00364543
X01117309Y00359446
X01106996Y0034357
X01082453Y00356861
X01052855Y00395671
X01130819Y00387422
X01150402Y00377575
X01150903Y00371126
X01159283Y00371445
X01178502Y00371806
X01184757Y00374584
X01195487Y00371022
X01204263Y00370365
X01218328Y00373157
X01228473Y00379177
X01234577Y00381632
X01236871Y0038914
X01227995Y00391054
X01252491Y00386934
X01252871Y00363063
X01316684Y00371711
X0131353Y0039368
X01200269Y00395712
X01193864Y00385951
X01420155Y00378966
X01390075Y00433223
X0139Y00445
X01339893Y00442442
X01327207Y00442382
X01322735Y00452173
X01323296Y00474623
X01287178Y00452351
X01271453Y00452156
X01247009Y00452027
X01227153Y00458621
X01211852Y0046583
X01220385Y00475132
X01222675Y00492932
X01216332Y00492624
X01209776Y00487569
X01203753Y00484754
X01194758Y00482663
X01263157Y00485809
X01261803Y00500083
X01275428Y00499235
X01274665Y00527877
X01296169Y00528831
X01274692Y00560514
X01287025Y0058986
X01325998Y00585262
X0132251Y00573316
X01325474Y00601227
X01300396Y0062934
X01309898Y00706007
X01302146Y00722381
X01318151Y00726582
X01350638Y00710668
X01365Y00715
X01375Y00765
X01445122Y00679598
X01443157Y00627474
X01407197Y0057796
X01445Y00535
X01252891Y00510491
X01225Y00525
X01224396Y00571741
X01213173Y00577456
X01211787Y0062913
X0123Y00700818
Y0074
X01200949Y00728736
X01236289Y00397488
X01269899Y00415418
X01315732Y00409626
X01104112Y004132
X01103115Y00419627
X01098277Y00398936
X0111037Y00399317
X01089081Y00436137
X01084579Y00440616
X01074859Y00454019
X01052378Y00459034
X0105597Y00471349
X01045024Y00483186
X01032926Y00480043
X01026405Y00480415
X01018369Y00487107
X01000184Y00491916
X01003881Y00503346
X00992827
X00987828Y00510792
X00987607Y00522222
X00977193
X00971426Y00528565
X0097591Y00540159
X0098268Y00550686
X00989912Y00549078
X00965528Y00548147
X00965115Y00566915
X00989925Y0057993
X00978157Y00594448
X00981786Y00628746
X00994108Y00626901
X01007326Y00643142
X01036486Y00622955
X01036392Y00612475
X01068363Y00625579
X01097825Y00622145
X0109727Y00572142
X0107364Y00565167
X01073423Y00553316
X01085422Y00545091
X01079233Y00534575
X01065863Y00523145
X01055463Y00497742
X01076956Y0048459
X01083399Y0048623
X01120907Y00483672
X01127799Y00481765
X01138615Y00489534
X0114377Y00485826
X01150941Y00484385
X01151276Y00477886
X01131133Y00501123
X0111884Y00534674
X01105094Y00546985
X010541Y00549148
X0102Y00555
X01020828Y00562575
X01014379Y00541207
X0102Y00535
X01026931Y00533106
X01034876Y00458884
X01048622Y00433097
X01040052Y00411324
X01009816Y00408535
X01013104Y00400795
X01002182Y00401385
X01Y00425
X01015
X0101Y0042
X01016541Y00436541
X00956011Y00450128
X00949266Y00450389
X0095047Y00460247
X00940804Y0046191
X00924986Y00455835
X00945296Y00484346
X00946439Y00498769
X00968922Y00468922
X00940982Y00550661
X00903719Y00537339
X00895355Y00534336
X00883676Y00534838
X00889042Y0052419
X00882057Y00516875
X00882215Y00510286
X00861344Y00487378
X00851139Y00468297
X00842209Y00440945
X00871957Y00428728
X00873416Y0041985
X00871289Y00412788
X00878505Y00407164
X00870871Y00547462
X0086926Y00563228
X00863101Y0055746
X00892998Y00563514
X00838868Y00585815
X00824184Y00578227
X0084Y0053
X00844709Y00524875
X00834379Y0051106
X00858642Y00613563
X00870284Y00620753
X00868267Y00639827
X00861282Y00662175
X00885Y00695
X0095Y0069
X00925Y0073
X0091Y00745
X0104Y0071
X01062482Y00713994
X0109Y0070619
X01109904Y00711555
X01163881Y00712159
X01171964Y00710747
X01178418Y00629075
X01174525Y00590079
X01183143Y005852
X01181727Y00512047
T03
X00815Y00465
Y004904
T04
X00835Y00725
Y007758
T05
X0093Y008
X010252
X0113
X012252
X013204
T06
X0084Y00345
X01405
X00835Y0084
X01413371Y0084023
T07
X01417514Y00395651
Y00474635
Y00476667
M30
